) (`-.                           (` .-') /`           ) (`-.
       ( OO ).                          `.( OO ),'            ( OO ).
      (_/.  _)-.-'),-----. ,--.     ,--./  .--.  .-'),-----.(_/.  _)-.
         `.'  ( OO'  .-.  '|  |.-') |      |  | ( OO'  .-.  '  `.'  /
             /Y   |  | |  ||  | OO )|  |   |  |,/   |  | |  |      /
             _) |  ||  ||  |`-' ||  |.'.|  |_)_) |  ||  |      |
        .'    _) |  | |  (|  '---.'|         |    |  | |  | .'    _)
       /  .'.    `'  '-'  '|      | |   ,'.   |    `'  '-'  '/  .'.  
      '--'   '--'   `-----' `------' '--'   '--'      `-----''--'   '--'


      ▀▀▀▀▀▀▀▀▀▀▀▀▀▀▀▀▀▀▀▀▀▀▀▀▀▀▀▀▀▀▀▀▀▀▀▀▀▀▀▀▀▀▀▀▀▀▀▀▀▀▀▀▀▀▀▀▀▀▀▀▀▀▀▀▀▀▀▀▀▀

                  █░░░░░░░░░░░░░░░░░░░░░░░░░░░░░░░░░█
                 ██ Four Christmases[2009]DvDrip-LW ██
                  █░░░░░░░░░░░░░░░░░░░░░░░░░░░░░░░░░█

File Name    : Four Christmases[2009]DvDrip-LW
Type         : Movie
Format       : AVI
File Size    : 696 MB
Duration     : 01:28:31
Language     : English
Source       : DvD
Subtitles    : None
Genre        : Comedy | Drama | Romance
IMDB Link    : http://www.imdb.com/title/tt0369436/
IMDB Rating  : 5.7/10
IMDB Votes   : 7,361 Votes
     ▄▄▄▄▄▄▄▄▄▄▄▄▄▄▄▄▄▄▄▄▄▄▄▄▄▄▄▄▄▄▄▄▄▄▄▄▄▄▄▄▄▄▄▄▄▄▄▄▄▄▄▄▄▄▄▄▄▄▄▄▄▄▄▄▄▄▄▄▄▄
 
                        █░░░░░░░░░░░░░░░░░░░░░░░░█
                       ██       Video Info       ██
                        █░░░░░░░░░░░░░░░░░░░░░░░░█

Format                           : MPEG-4 Visual
Format profile                   : Streaming Video@L1
Format settings, BVOP            : Yes
Format settings, QPel            : No
Format settings, GMC             : No warppoints
Format settings, Matrix          : Default (H.263)
Codec ID                         : XVID
Codec ID/Hint                    : XviD
Duration                         : 1h 28mn
Bit rate                         : 955 Kbps
Width                            : 624 pixels
Height                           : 352 pixels
Display aspect ratio             : 16/9
Frame rate                       : 23.976 fps
Resolution                       : 24 bits
Colorimetry                      : 4:2:0
Scan type                        : Progressive
Bits/(Pixel*Frame)               : 0.181
Stream size                      : 605 MiB (87%)
Writing library                  : XviD 1.2.0
     ▄▄▄▄▄▄▄▄▄▄▄▄▄▄▄▄▄▄▄▄▄▄▄▄▄▄▄▄▄▄▄▄▄▄▄▄▄▄▄▄▄▄▄▄▄▄▄▄▄▄▄▄▄▄▄▄▄▄▄▄▄▄▄▄▄▄▄▄▄▄

                         █░░░░░░░░░░░░░░░░░░░░░░░░█
                        ██      Sound Info        ██
                         █░░░░░░░░░░░░░░░░░░░░░░░░█

Format                           : MPEG Audio
Format version                   : Version 1
Format profile                   : Layer 3
Codec ID                         : 55
Codec ID/Hint                    : MP3
Duration                         : 1h 28mn
Bit rate mode                    : Variable
Bit rate                         : 132 Kbps
Nominal bit rate                 : 128 Kbps
Channel(s)                       : 2 channels
Sampling rate                    : 48.0 KHz
Resolution                       : 16 bits
Stream size                      : 83.7 MiB (12%)
Alignment                        : Aligned on interleaves
Interleave, duration             : 24 ms (0.58 video frame)
Interleave, preload duration     : 139 ms
Writing library                  : LAME3.90.
Encoding settings                : ABR
    ▄▄▄▄▄▄▄▄▄▄▄▄▄▄▄▄▄▄▄▄▄▄▄▄▄▄▄▄▄▄▄▄▄▄▄▄▄▄▄▄▄▄▄▄▄▄▄▄▄▄▄▄▄▄▄▄▄▄▄▄▄▄▄▄▄▄▄▄▄▄

                          █░░░░░░░░░░░░░░░░░░░░░░░░█
                         ██          Plot          ██
                          █░░░░░░░░░░░░░░░░░░░░░░░░█

Academy Award winner Reese Witherspoon teams up with 
Vince Vaughn for this romantic comedy that casts them 
as a dating couple who are forced to spend their first 
Christmas together visiting each of their four divorced 
parents -- in a single day. Seth Gordon directs an 
all-star cast that includes Robert Duvall, Sissy Spacek, 
Mary Steenburgen, Dwight Yoakam, Carol Kane, Jon Favreau 
and Tim McGraw.

Starring: Reese Witherspoon, Vince Vaughn

Director: Seth Gordon
    ▄▄▄▄▄▄▄▄▄▄▄▄▄▄▄▄▄▄▄▄▄▄▄▄▄▄▄▄▄▄▄▄▄▄▄▄▄▄▄▄▄▄▄▄▄▄▄▄▄▄▄▄▄▄▄▄▄▄▄▄▄▄▄▄▄▄▄▄▄▄

ScreenShots 
http://imgshack.info/images/vvl3e6gxn5r9mb5z6rrq.png 
http://imgshack.info/images/zfsb34jog9rzbfghzwt.png 
http://imgshack.info/images/bq7gjc1snthr94w5itf2.png 
http://imgshack.info/images/pexkn7ht6jnz1b78w0z.jpg 
http://torrentz.leadhoster.com/